<svg xmlns="http://www.w3.org/2000/svg" width="451" height="207">
  <path d="M5.16 122L7.26 122L7.26 93.21C7.26 83.84 11.99 77.10 19.64 77.10C21.91 77.10 23.59 77.66 24.62 78.17L24.62 75.98C23.72 75.59 21.91 75.08 19.98 75.08C13.62 75.08 9.24 78.64 7.22 85.35L7.13 85.35L7.13 75.77L5.16 75.77ZM48.81 77.05C59.30 77.05 66.34 85.18 66.34 97.04L30.89 97.04C31.41 85.05 38.50 77.05 48.81 77.05ZM65.70 109.15C64.32 115.68 58.44 120.71 49.20 120.71C38.16 120.71 30.85 112.80 30.85 99.05L30.85 98.97L68.49 98.97L68.49 97.34C68.49 84.06 60.59 75.08 48.81 75.08C36.70 75.08 28.70 84.53 28.70 98.88C28.70 113.92 36.74 122.69 49.16 122.69C59.51 122.69 66.34 116.93 67.89 109.15ZM76.87 122L78.98 122L78.98 94.29C78.98 84.14 85.72 77.05 95.22 77.05C104.24 77.05 110.43 82.81 110.43 92.22L110.43 122L112.54 122L112.54 92.14C112.54 81.78 105.62 75.08 95.48 75.08C87.44 75.08 81.04 79.85 79.06 86.68L78.98 86.68L78.98 57.29L76.87 57.29ZM124.74 137.55C130.80 137.55 133.07 134.98 137.29 123.89L155.50 75.77L153.18 75.77L136.51 119.98L136.43 119.98L119.80 75.77L117.48 75.77L135.31 122.82L133.80 126.73C131.18 133.30 129.08 135.58 124.95 135.58C124.14 135.58 123.15 135.36 122.72 135.19L122.72 137.17C123.02 137.30 123.92 137.55 124.74 137.55ZM180.77 75.08C171.62 75.08 164.66 81.48 162.77 89.56L162.68 89.56L162.68 75.77L160.70 75.77L160.70 137.08L162.81 137.08L162.81 108.46L162.89 108.46C164.70 116.33 171.62 122.69 180.77 122.69C192.33 122.69 200.28 113.02 200.28 98.88C200.28 84.79 192.29 75.08 180.77 75.08ZM180.64 120.67C170.16 120.67 162.81 111.73 162.81 98.88C162.81 86.04 170.16 77.05 180.64 77.05C191.04 77.05 198.17 85.99 198.17 98.93C198.17 111.82 191.04 120.67 180.64 120.67ZM225.97 77.05C236.46 77.05 243.50 85.18 243.50 97.04L208.05 97.04C208.57 85.05 215.66 77.05 225.97 77.05ZM242.86 109.15C241.48 115.68 235.60 120.71 226.36 120.71C215.32 120.71 208.01 112.80 208.01 99.05L208.01 98.97L245.65 98.97L245.65 97.34C245.65 84.06 237.75 75.08 225.97 75.08C213.86 75.08 205.86 84.53 205.86 98.88C205.86 113.92 213.90 122.69 226.32 122.69C236.67 122.69 243.50 116.93 245.05 109.15ZM253.60"/>
  <path fill="#dfb317" d="M253.60 122L255.71 122L255.71 94.80C255.71 83.93 261.42 77.05 269.67 77.05C277.11 77.05 282.52 82.86 282.52 91.58L282.52 122L284.63 122L284.63 93.47C284.63 83.76 290.21 77.05 298.55 77.05C306.50 77.05 311.44 82.55 311.44 91.49L311.44 122L313.54 122L313.54 91.02C313.54 81.31 307.61 75.08 298.85 75.08C290.94 75.08 285.44 80.62 284.11 86.72L284.02 86.72C282.82 80.41 277.49 75.08 269.84 75.08C262.24 75.08 257.25 80.15 255.66 86.68L255.58 86.68L255.58 75.77L253.60 75.77ZM323.98 122L326.09 122L326.09 75.77L323.98 75.77ZM325.06 63.30C326.18 63.30 327.12 62.36 327.12 61.24C327.12 60.08 326.18 59.18 325.06 59.18C323.90 59.18 322.95 60.08 322.95 61.24C322.95 62.36 323.90 63.30 325.06 63.30ZM336.83 122L338.94 122L338.94 94.24C338.94 84.14 345.51 77.05 355.01 77.05C364.03 77.05 370.35 82.81 370.35 92.18L370.35 122L372.45 122L372.45 92.09C372.45 81.70 365.45 75.08 355.27 75.08C347.19 75.08 340.87 79.85 338.89 86.68L338.81 86.68L338.81 75.77L336.83 75.77ZM382.89 122L385 122L385 75.77L382.89 75.77ZM383.97 63.30C385.09 63.30 386.03 62.36 386.03 61.24C386.03 60.08 385.09 59.18 383.97 59.18C382.81 59.18 381.86 60.08 381.86 61.24C381.86 62.36 382.81 63.30 383.97 63.30ZM397.89 122L400.04 122L400.04 77.70L410.22 77.70L410.22 75.77L400.04 75.77L400.04 68.80C400.04 62.49 402.92 60.17 407.52 60.17C408.68 60.17 409.75 60.30 410.65 60.60L410.65 58.62C409.96 58.36 408.76 58.19 407.47 58.19C401.63 58.19 397.89 61.24 397.89 68.50L397.89 75.77L391.45 75.77L391.45 77.70L397.89 77.70ZM419.80 137.55C425.86 137.55 428.14 134.98 432.35 123.89L450.57 75.77L448.25 75.77L431.58 119.98L431.49 119.98L414.86 75.77L412.54 75.77L430.38 122.82L428.87 126.73C426.25 133.30 424.14 135.58 420.02 135.58C419.20 135.58 418.21 135.36 417.79 135.19L417.79 137.17C418.09 137.30 418.99 137.55 419.80 137.55Z"/>
</svg>
