<svg xmlns="http://www.w3.org/2000/svg" width="1012" height="300" viewBox="0 0 1012 300">
  <style>
    .b {fill: #0d1117}
    .l {fill: #fff}
    @media (prefers-color-scheme: light) {
      .b {fill: #fff}
      .l {fill: #0d1117}
    }
  </style>
  <rect class="b" x="0" y="0" width="1012" height="300" />
  <path fill="#d8a303" d="M299.53 168.00L299.53 153.82Q299.53 147.35 302.55 143.51Q305.57 139.67 310.66 139.67L310.66 139.67Q311.95 139.67 313.36 139.91Q314.76 140.14 315.85 140.55L315.85 140.55L315.85 136.36Q315.12 136.04 313.87 135.85Q312.63 135.66 311.25 135.66L311.25 135.66Q306.65 135.66 303.66 137.96Q300.67 140.26 299.85 144.48L299.85 144.48L299.44 144.48L299.44 136.45L288.54 136.45L288.54 139.56L295.69 139.56L295.69 168.00L299.53 168.00ZM289.19 168.00L309.55 168.00L309.55 164.90L289.19 164.90L289.19 168.00ZM338.44 139.32L338.44 139.32Q342.63 139.32 344.98 142.18Q347.34 145.03 347.34 150.07L347.34 150.07L329.30 150.07Q329.30 145.00 331.73 142.16Q334.16 139.32 338.44 139.32ZM351.09 160.21L347.28 160.21Q346.55 162.52 344.33 163.81Q342.10 165.10 338.88 165.10L338.88 165.10Q334.48 165.10 331.89 162.19Q329.30 159.27 329.30 154.32L329.30 154.32L329.30 153.24L351.24 153.24L351.24 150.75Q351.24 146.03 349.73 142.72Q348.22 139.41 345.37 137.67Q342.51 135.92 338.44 135.92L338.44 135.92Q334.54 135.92 331.61 137.64Q328.68 139.35 327.07 142.44Q325.46 145.53 325.46 149.69L325.46 149.69L325.46 154.29Q325.46 161.03 328.99 164.78Q332.52 168.53 338.88 168.53L338.88 168.53Q342.07 168.53 344.63 167.50Q347.20 166.48 348.88 164.60Q350.57 162.73 351.09 160.21L351.09 160.21Z"/>
  <path class="l" d="M363.37 123.88L363.37 168.00L367.21 168.00L367.21 149.25Q367.21 144.86 369.83 142.12Q372.45 139.38 376.70 139.38L376.70 139.38Q380.68 139.38 382.59 141.61Q384.49 143.83 384.49 148.46L384.49 148.46L384.49 168.00L388.33 168.00L388.33 147.50Q388.33 141.87 385.60 138.90Q382.88 135.92 377.72 135.92L377.72 135.92Q374.06 135.92 371.38 137.53Q368.70 139.15 367.41 142.13L367.41 142.13L367.03 142.13L367.03 123.88L363.37 123.88ZM404.27 179.17L404.27 179.17Q406.84 179.17 408.59 178.33Q410.33 177.50 411.69 175.40Q413.06 173.31 414.46 169.53L414.46 169.53L426.74 136.45L422.64 136.45L413.11 163.81L412.76 163.81L403.21 136.45L399.05 136.45L410.89 168.21L410.24 170.17Q409.07 173.31 407.72 174.57Q406.38 175.83 404.21 175.83L404.21 175.83Q403.86 175.83 403.33 175.80Q402.80 175.77 402.48 175.71L402.48 175.71L402.48 179.05Q402.86 179.08 403.39 179.12Q403.92 179.17 404.27 179.17ZM451.43 135.92L451.43 135.92Q448.07 135.92 445.59 137.21Q443.11 138.50 441.74 140.99L441.74 140.99L441.21 140.99L441.21 136.45L437.55 136.45L437.55 178.70L441.39 178.70L441.39 163.34L441.91 163.34Q443.03 165.83 445.52 167.18Q448.01 168.53 451.43 168.53L451.43 168.53Q455.10 168.53 457.87 166.86Q460.63 165.19 462.19 162.19Q463.74 159.18 463.74 155.26L463.74 155.26L463.74 149.19Q463.74 145.24 462.19 142.25Q460.63 139.26 457.87 137.59Q455.10 135.92 451.43 135.92ZM450.58 139.38L450.58 139.38Q454.83 139.38 457.37 142.31Q459.90 145.24 459.90 150.13L459.90 150.13L459.90 154.35Q459.90 159.21 457.37 162.16Q454.83 165.10 450.58 165.10L450.58 165.10Q446.37 165.10 443.83 162.17Q441.30 159.24 441.30 154.35L441.30 154.35L441.30 150.13Q441.30 145.24 443.83 142.31Q446.37 139.38 450.58 139.38ZM487.44 139.32L487.44 139.32Q491.63 139.32 493.99 142.18Q496.35 145.03 496.35 150.07L496.35 150.07L478.30 150.07Q478.30 145.00 480.73 142.16Q483.16 139.32 487.44 139.32ZM500.10 160.21L496.29 160.21Q495.56 162.52 493.33 163.81Q491.10 165.10 487.88 165.10L487.88 165.10Q483.49 165.10 480.89 162.19Q478.30 159.27 478.30 154.32L478.30 154.32L478.30 153.24L500.24 153.24L500.24 150.75Q500.24 146.03 498.73 142.72Q497.23 139.41 494.37 137.67Q491.51 135.92 487.44 135.92L487.44 135.92Q483.54 135.92 480.61 137.64Q477.68 139.35 476.07 142.44Q474.46 145.53 474.46 149.69L474.46 149.69L474.46 154.29Q474.46 161.03 477.99 164.78Q481.52 168.53 487.88 168.53L487.88 168.53Q491.07 168.53 493.64 167.50Q496.20 166.48 497.88 164.60Q499.57 162.73 500.10 160.21L500.10 160.21Z"/>
  <path fill="#d8a303" d="M539.15 168.00L539.15 145.36Q539.15 140.67 537.41 138.30Q535.66 135.92 532.21 135.92L532.21 135.92Q529.77 135.92 527.93 137.21Q526.08 138.50 525.44 140.67L525.44 140.67L525.03 140.67Q524.53 138.41 522.99 137.17Q521.45 135.92 519.20 135.92L519.20 135.92Q517.03 135.92 515.40 137.20Q513.78 138.47 513.16 140.67L513.16 140.67L512.75 140.67L512.75 136.45L509.27 136.45L509.27 168.00L512.87 168.00L512.87 146.88Q512.87 143.39 514.23 141.39Q515.59 139.38 517.97 139.38L517.97 139.38Q520.22 139.38 521.35 141.09Q522.48 142.81 522.48 146.21L522.48 146.21L522.48 168.00L526.08 168.00L526.08 146.88Q526.08 143.36 527.42 141.37Q528.75 139.38 531.06 139.38L531.06 139.38Q533.29 139.38 534.42 141.11Q535.55 142.84 535.55 146.24L535.55 146.24L535.55 168.00L539.15 168.00ZM561.88 128.10L561.88 128.10Q563.38 128.10 564.45 127.03Q565.52 125.96 565.52 124.47L565.52 124.47Q565.52 122.97 564.45 121.90Q563.38 120.83 561.88 120.83L561.88 120.83Q560.39 120.83 559.32 121.90Q558.25 122.97 558.25 124.47L558.25 124.47Q558.25 125.96 559.32 127.03Q560.39 128.10 561.88 128.10ZM549.29 168.00L575.04 168.00L575.04 164.90L564.23 164.90L564.23 136.45L549.23 136.45L549.23 139.56L560.39 139.56L560.39 164.90L549.29 164.90L549.29 168.00ZM585.91 136.45L585.91 168.00L589.75 168.00L589.75 149.25Q589.75 144.86 592.37 142.12Q594.99 139.38 599.24 139.38L599.24 139.38Q603.22 139.38 605.13 141.61Q607.03 143.83 607.03 148.46L607.03 148.46L607.03 168.00L610.87 168.00L610.87 147.50Q610.87 141.87 608.14 138.90Q605.42 135.92 600.26 135.92L600.26 135.92Q596.60 135.92 593.92 137.53Q591.24 139.15 589.95 142.13L589.95 142.13L589.57 142.13L589.57 136.45L585.91 136.45ZM636.06 128.10L636.06 128.10Q637.56 128.10 638.63 127.03Q639.70 125.96 639.70 124.47L639.70 124.47Q639.70 122.97 638.63 121.90Q637.56 120.83 636.06 120.83L636.06 120.83Q634.57 120.83 633.50 121.90Q632.43 122.97 632.43 124.47L632.43 124.47Q632.43 125.96 633.50 127.03Q634.57 128.10 636.06 128.10ZM623.47 168.00L649.22 168.00L649.22 164.90L638.41 164.90L638.41 136.45L623.41 136.45L623.41 139.56L634.57 139.56L634.57 164.90L623.47 164.90L623.47 168.00ZM668.20 139.70L668.20 168.00L672.04 168.00L672.04 139.70L686.42 139.70L686.42 136.45L672.04 136.45L672.04 132.93Q672.04 127.54 679.63 127.54L679.63 127.54Q681.24 127.54 683.20 127.65Q685.17 127.75 686.42 127.90L686.42 127.90L686.42 124.67Q685.49 124.53 683.39 124.39Q681.30 124.26 679.63 124.26L679.63 124.26Q675.88 124.26 673.33 125.23Q670.78 126.20 669.49 128.10Q668.20 130.00 668.20 132.82L668.20 132.82L668.20 136.45L659.71 136.45L659.71 139.70L668.20 139.70ZM700.99 179.17L700.99 179.17Q703.56 179.17 705.31 178.33Q707.05 177.50 708.41 175.40Q709.77 173.31 711.18 169.53L711.18 169.53L723.46 136.45L719.35 136.45L709.83 163.81L709.48 163.81L699.93 136.45L695.77 136.45L707.61 168.21L706.96 170.17Q705.79 173.31 704.44 174.57Q703.09 175.83 700.93 175.83L700.93 175.83Q700.58 175.83 700.05 175.80Q699.52 175.77 699.20 175.71L699.20 175.71L699.20 179.05Q699.58 179.08 700.11 179.12Q700.63 179.17 700.99 179.17Z"/>
</svg>
